<svg width="1714" height="1233" viewBox="0 0 1714 1233" fill="none" xmlns="http://www.w3.org/2000/svg">
<path d="M1152.81 0.859375C1095.98 0.859375 1045.65 25.3659 1024.55 63.2774L838.104 398.365C835.204 398.245 832.331 398.047 829.375 398.047H497.875C223.697 398.047 0.624939 558.411 0.624939 755.516C0.624939 938.997 193.972 1090.47 441.852 1110.56L374.197 1232.14H1713.37V0.859375H1152.81ZM1658.12 775.375H1464.75V40.5782H1658.12V775.375ZM1354.25 40.5782H1409.5V775.375C1409.5 797.28 1434.27 815.093 1464.75 815.093H1658.12V854.813H1437.12C1391.43 854.813 1354.25 828.082 1354.25 795.234V40.5782ZM55.8751 755.516C55.8751 580.316 254.168 437.766 497.875 437.766H829.375C890.316 437.766 939.875 473.394 939.875 517.203V695.938V815.093V993.828C939.875 1037.64 890.316 1073.26 829.375 1073.26H497.875C254.168 1073.26 55.8751 930.715 55.8751 755.516ZM995.125 695.938C995.125 684.995 1007.53 676.078 1022.75 676.078C1037.97 676.078 1050.38 684.995 1050.38 695.938V815.093C1050.38 826.036 1037.97 834.953 1022.75 834.953C1007.53 834.953 995.125 826.036 995.125 815.093V695.938ZM455.803 1192.42L500.003 1112.99H829.375C920.787 1112.99 995.125 1059.54 995.125 993.828V871.018C1003.8 873.242 1013.03 874.672 1022.75 874.672C1068.44 874.672 1105.62 847.941 1105.62 815.093V695.938C1105.62 663.09 1068.44 636.359 1022.75 636.359C1013.03 636.359 1003.8 637.789 995.125 640.013V517.203C995.125 467.634 952.776 425.076 892.747 407.142L1075.87 78.0329C1088.52 55.2741 1118.72 40.5782 1152.81 40.5782H1299V795.234C1299 849.987 1360.96 894.532 1437.12 894.532H1658.12V934.25H1602.88V973.968H1658.12V1192.42H455.803Z" fill="#1A87C7"/>
</svg>
