<svg width="1458" height="1289" viewBox="0 0 1458 1289" fill="none" xmlns="http://www.w3.org/2000/svg">
<path d="M729 0C327.015 0 0 289.131 0 644.5C0 706.518 10.3001 767.641 29.889 826.499C10.6763 866.416 0 910.304 0 956.355C0 1139.77 168.799 1289 376.258 1289C428.346 1289 477.965 1279.58 523.116 1262.58C589.761 1279.89 658.875 1289 729 1289C1130.98 1289 1458 999.869 1458 644.5C1458 289.131 1130.98 0 729 0ZM47.0323 956.355C47.0323 795.854 194.714 665.29 376.258 665.29C557.803 665.29 705.484 795.854 705.484 956.355C705.484 1116.86 557.803 1247.42 376.258 1247.42C194.714 1247.42 47.0323 1116.86 47.0323 956.355ZM164.942 665.29H194.525C184.578 670.155 174.866 675.353 165.483 680.966C165.248 675.623 165.083 670.342 164.942 665.29ZM705.484 1142.64C699.746 1142.43 694.008 1142.39 688.294 1142.03C694.455 1133.97 700.122 1125.59 705.484 1117.04V1142.64ZM729 1247.42C679.922 1247.42 631.385 1242.58 583.929 1233.49C609.538 1218.44 632.725 1200.52 653.443 1180.54C678.44 1183.24 703.697 1185.05 729 1185.05C947.912 1185.05 1151.44 1080.56 1260.21 912.342L1219.38 891.718C1212.96 901.635 1206.17 911.302 1199.06 920.741L1104.29 859.867L1076.64 893.506L1171.17 954.213C1143.97 984.484 1113.11 1011.66 1079.25 1035.34L1010.65 951.843L972.627 976.293L1041.27 1059.83C1005.13 1081.03 966.231 1098.39 925.501 1111.82L889.451 1013.76L844.723 1026.61L880.844 1124.86C839.361 1135.15 796.35 1141.14 752.516 1142.76V1039.52H740.123C747.93 1012.88 752.516 985.108 752.516 956.355C752.516 772.943 583.717 623.71 376.258 623.71C343.735 623.71 312.318 627.764 282.194 634.666V623.71H165.201C167.035 584.562 174.019 546.598 185.519 510.257L296.75 542.212L311.307 502.668L199.981 470.672C215.267 434.414 235.208 400.151 259.148 368.405L353.683 429.133L381.338 395.494L286.92 334.849C313.917 304.786 344.746 277.53 378.751 253.663L447.347 337.157L485.373 312.707L416.706 229.13C452.591 207.966 491.346 190.335 532.382 176.822L568.573 275.243L613.301 262.395L577.156 164.036C618.239 153.869 661.203 147.674 705.484 146.052V249.484H752.516V146.052C796.797 147.674 839.761 153.848 880.844 164.015L844.676 262.374L889.403 275.222L925.595 176.801C966.607 190.315 1005.36 207.945 1041.27 229.109L972.604 312.686L1010.63 337.136L1079.23 253.642C1113.23 277.509 1144.06 304.745 1171.06 334.828L1076.64 395.474L1104.29 429.112L1198.83 368.384C1222.77 400.11 1242.71 434.372 1258 470.651L1146.67 502.648L1161.23 542.191L1272.46 510.236C1283.96 546.578 1290.96 584.541 1292.78 623.689H1175.81V665.27H1292.78C1290.99 704.023 1284.33 741.965 1272.69 778.805L1161.23 746.768L1146.67 786.311L1258.04 818.307C1253.34 829.451 1248.35 840.49 1242.73 851.385L1285.49 868.661C1321.94 798.141 1340.42 722.713 1340.42 644.5C1340.42 346.45 1066.15 103.952 729 103.952C391.849 103.952 117.581 346.45 117.581 644.5C117.581 661.902 118.498 691.195 120.238 713.274C98.6266 731.092 79.2023 750.926 62.7881 772.755C52.5115 730.821 47.0323 687.91 47.0323 644.5C47.0323 312.042 352.977 41.5806 729 41.5806C1105.02 41.5806 1410.97 312.042 1410.97 644.5C1410.97 976.958 1105.02 1247.42 729 1247.42Z" fill="#1A87C7"/>
</svg>
