<svg width="1900" height="1467" viewBox="0 0 1900 1467" fill="none" xmlns="http://www.w3.org/2000/svg">
<path d="M766.016 840.937C664.626 840.937 582.172 905.689 582.172 985.312V1033.44H367.688V913.124C367.688 865.745 268.657 848.949 183.844 848.949C99.0305 848.949 0 865.745 0 913.124V1153.75C0 1233.37 82.4539 1298.12 183.844 1298.12H582.172V1322.19C582.172 1401.81 664.626 1466.56 766.016 1466.56H1899.72V840.937H766.016ZM183.844 897.074C242.367 897.074 282.782 906.002 299.819 913.124C282.782 920.247 242.367 929.174 183.844 929.174C125.32 929.174 84.9052 920.247 67.869 913.124C84.9052 906.002 125.32 897.074 183.844 897.074ZM183.844 1250C116.251 1250 61.2812 1206.83 61.2812 1153.75V963.27C96.4873 973.16 141.897 977.299 183.844 977.299C225.791 977.299 271.2 973.16 306.406 963.27V1033.44C306.406 1059.98 333.891 1081.56 367.688 1081.56H582.172V1250H183.844ZM1838.44 1418.44H827.297V1370.31H766.016V1418.44C698.422 1418.44 643.453 1375.27 643.453 1322.19V985.312C643.453 932.23 698.422 889.062 766.016 889.062V1322.19H827.297V889.062H1838.44V1418.44Z" fill="#1A87C7"/>
<path d="M231.429 814.347L258.852 771.299C257.78 770.866 153.203 728.324 153.203 600.311C153.203 477.809 221.93 455.431 224.167 454.685L204.771 409.062C200.175 410.266 91.9219 440.416 91.9219 600.311C91.9219 757.752 225.73 812.109 231.429 814.347Z" fill="#1A87C7"/>
<path d="M227.905 315.724L245.125 335.624L262.131 355.644C266.42 353.382 367.687 298.88 367.687 167.186C367.687 31.1128 259.434 1.20313 254.807 0L235.443 45.6225C236.147 45.815 306.406 67.0141 306.406 167.186C306.406 271.954 231.122 313.992 227.905 315.724Z" fill="#1A87C7"/>
<path d="M314.924 696.152L373.019 680.921C372.651 680.054 337.016 591.913 452.286 501.366C562.562 414.789 631.35 437.071 633.587 437.817L661.01 394.769C656.69 393.085 552.818 354.344 408.96 467.342C267.248 578.703 312.902 691.412 314.924 696.152Z" fill="#1A87C7"/>
<path d="M993.951 314.208C1116.48 217.982 1066.85 136.723 1064.7 133.306L1009.67 154.481C1010.96 156.719 1040.4 209.681 950.625 280.184C856.375 354.248 765.25 342.169 761.389 341.639L749.592 388.874C751.063 389.115 761.971 390.703 779.589 390.703C823.62 390.703 909.352 380.693 993.951 314.208Z" fill="#1A87C7"/>
<path d="M462.827 685.806L517.643 707.342C518.194 706.499 572.367 624.374 735.375 624.374C891.366 624.374 919.862 678.346 920.812 680.103L978.907 664.871C977.375 661.262 938.982 576.249 735.375 576.249C534.893 576.249 465.676 681.33 462.827 685.806Z" fill="#1A87C7"/>
<path d="M1286.91 792.811C1460.18 792.811 1498.27 707.798 1499.8 704.165L1441.7 688.933C1441.46 689.511 1414.46 744.686 1286.91 744.686C1153.5 744.686 1099.97 685.565 1097.76 683.038L1046.93 709.892C1049.81 713.285 1119.21 792.811 1286.91 792.811Z" fill="#1A87C7"/>
<path d="M949.859 1322.19H888.578V1370.31H949.859V1322.19Z" fill="#1A87C7"/>
<path d="M1777.16 1322.19H1011.14V1370.31H1777.16V1322.19Z" fill="#1A87C7"/>
</svg>
