<svg width="3967" height="2705" viewBox="0 0 3967 2705" fill="none" xmlns="http://www.w3.org/2000/svg">
<path fill-rule="evenodd" clip-rule="evenodd" d="M1619.38 2669.84L1630.43 2529.09H1575.75L1578.99 2666.82L1619.38 2669.84Z" fill="url(#paint0_linear_9_2)"/>
<path d="M2385.11 2691.83H2415.35L2309.45 1635.7H2230.78L2385.11 2691.83Z" fill="#B3B3B3"/>
<path opacity="0.32" d="M2277.43 1954.47L2230.89 1635.7H2309.57L2331.88 1858.09C2319.5 1892.59 2299.97 1924.85 2277.43 1954.47Z" fill="#B3B3B3"/>
<path d="M1352.69 2691.83H1322.44L1428.34 1635.7H1507.01L1352.69 2691.83Z" fill="#B3B3B3"/>
<path opacity="0.32" d="M1392.08 1997.66L1428.34 1635.83H1507.01L1466.06 1915.76C1445.19 1946.58 1419.97 1973.96 1392.08 1997.66Z" fill="#B3B3B3"/>
<path d="M1441.18 372.446H2420.71V1266.36H1441.18V372.446Z" fill="#FCCB92"/>
<path d="M1584.56 1687.72C1393.3 1462.04 1393.3 1096.14 1584.56 870.452C1775.82 644.769 2085.92 644.769 2277.19 870.452C2468.45 1096.14 2468.45 1462.04 2277.19 1687.72C2085.92 1913.41 1775.82 1913.41 1584.56 1687.72Z" fill="#FCCB92"/>
<path d="M1930.83 1856.38H1612.58C1736.22 1849.67 1847.7 1788.97 1930.83 1693.77V1856.38Z" fill="#FCCB92"/>
<path d="M1589.81 1857.04C1582.23 1857.04 1574.64 1856.78 1567.05 1856.38H1612.58C1605.1 1856.78 1597.51 1857.04 1589.81 1857.04Z" fill="#FCCB92"/>
<path d="M1930.83 994.724V1693.63C1847.7 1788.83 1736.11 1849.66 1612.58 1856.25H1567.05C1307.16 1842.16 1100.05 1589.22 1100.05 1279C1100.05 1175.64 1123.15 1078.6 1163.54 994.592H1930.83V994.724Z" fill="#FCCB92"/>
<path d="M1538.71 463.563H2323.07V1266.36H1538.71V463.563Z" fill="#E39A46"/>
<path d="M1420.98 1702.98H1850.37V1077.42H1234.51C1130.4 1279.14 1249.69 1609.63 1420.98 1702.98Z" fill="#E39A46"/>
<path d="M1538.71 839.088C1620.72 778.387 1722.72 742.441 1833.3 742.441C2103.79 742.441 2323.07 957.46 2323.07 1222.78C2323.07 1488.09 2103.79 1703.11 1833.3 1703.11C1722.72 1703.11 1620.72 1667.17 1538.71 1606.47V839.088V839.088Z" fill="#E39A46"/>
<path d="M2084.82 1278.48C2084.82 1175.38 2061.84 1078.6 2021.66 994.856H2353.42V1448.46L2312.24 1617.4L2188.6 1648.08L2045.43 1666.25L1930.83 1693.77C2028.92 1619.5 2084.82 1427.66 2084.82 1278.48Z" fill="#FCCB92"/>
<path d="M2182.24 2691.83H2212.48L2106.58 1635.7C2065.18 1635.7 2033.38 1679.15 2039.41 1727.47L2182.24 2691.83Z" fill="#C9C9C9"/>
<path d="M1149.82 2691.83H1119.58L1225.48 1635.7C1266.87 1635.7 1298.68 1679.15 1292.65 1727.47L1149.82 2691.83Z" fill="#C9C9C9"/>
<path opacity="0.36" d="M1259.06 1954.34C1236.97 1980.02 1212.42 2002.4 1186.64 2022.94L1225.48 1635.7C1266.87 1635.7 1298.68 1679.15 1292.65 1727.47L1259.06 1954.34Z" fill="#C9C9C9"/>
<path opacity="0.36" d="M2081.36 2011.09L2039.41 1727.61C2033.38 1679.15 2065.18 1635.83 2106.58 1635.83L2136.04 1929.19C2122.1 1959.61 2103.12 1986.74 2081.36 2011.09Z" fill="#C9C9C9"/>
<path d="M1647.84 2611.78C1647.84 2611.78 1771.81 1986.73 1771.81 1723.39C1771.81 1460.05 1631.21 1468.08 1591.04 1574.47C1550.87 1680.86 1577.31 2610.06 1577.31 2610.06L1647.84 2611.78Z" fill="#4A4A4A"/>
<path d="M2083.04 1325.87C2083.04 1325.87 2065.07 1651.23 1936.41 1687.31C1807.75 1723.39 1406.92 1702.98 1406.92 1702.98L1322.45 1497.71L1384.82 1479.93L1639.02 1475.72L1682.21 1315.47L2083.04 1325.87Z" fill="#4A4A4A"/>
<path d="M2021.66 994.724H2213.26C2180.12 867.004 2048 484.631 1991.76 446.183C1935.52 407.735 1807.3 401.546 1760.77 455.005C1721.71 499.904 1684.55 613.537 1682.1 677.792C1670.27 981.821 1679.98 1040.68 1655.31 1368.93C1842.34 1381.84 2007.49 1350.76 2081.47 1346.81C2081.47 1346.81 2092.52 1251.75 2072.66 1146.15C2055.03 1052.92 2021.66 994.724 2021.66 994.724Z" fill="white"/>
<path d="M1823.37 575.934L1839.42 576.808L1808.18 1371.75L1792.13 1370.88L1823.37 575.934Z" fill="#EDEDED"/>
<path d="M2611.08 2691.83H2641.32L2535.42 1221.07H2456.75L2611.08 2691.83Z" fill="#E39A46"/>
<path d="M115.718 1099.8H3319.78V1221.2H115.718V1099.8Z" fill="#D4D4D4"/>
<path d="M3244.13 2691.83H3274.37L3168.47 1221.07H3089.8L3244.13 2691.83Z" fill="#FCCB92"/>
<path d="M193.831 2691.83H163.59L269.488 1221.07H348.158L193.831 2691.83Z" fill="#E39A46"/>
<path d="M826.988 2691.83H796.747L902.533 1221.07H981.204L826.988 2691.83Z" fill="#FCCB92"/>
<path opacity="0.32" d="M2562.2 1099.8H3319.78V1221.2H2621.57C2603.6 1179.2 2584.52 1137.85 2562.2 1099.8Z" fill="url(#paint1_linear_9_2)"/>
<path opacity="0.32" d="M2297.4 1099.8C2319.72 1138.64 2339.47 1179.33 2357.66 1221.2H2076.68C2060.94 1180.78 2045.21 1140.35 2028.92 1100.19C2028.92 1100.06 2028.81 1099.93 2028.81 1099.8H2297.4Z" fill="url(#paint2_linear_9_2)"/>
<path fill-rule="evenodd" clip-rule="evenodd" d="M1876.15 280.672L1932.17 439.994L1830.62 551.651L1800.04 455.399L1842.45 309.771L1876.15 280.672Z" fill="url(#paint3_linear_9_2)"/>
<path fill-rule="evenodd" clip-rule="evenodd" d="M1827.94 77.5033C1779.85 66.1796 1733.32 95.4106 1726.06 146.631C1720.82 183.499 1723.94 244.199 1727.4 281.199C1730.19 310.561 1730.97 342.294 1742.36 369.418C1751.84 392.066 1770.14 414.318 1792.35 418.663C1815.45 423.14 1829.84 410.631 1846.69 393.119C1885.64 352.433 1897.46 305.821 1901.48 243.541C1905.83 174.545 1905.95 82.1118 1827.94 77.5033Z" fill="url(#paint4_linear_9_2)"/>
<path d="M1744.92 476.861C1744.92 476.861 1511.92 783.655 1452.44 966.546C1434.7 1021.06 1462.6 1058.58 1508.02 1061.35C1591.26 1066.48 1771.81 752.843 1771.81 752.843L1744.92 476.861Z" fill="white"/>
<path d="M1371.32 997.488C1367.31 1010.13 1415.07 1056.21 1425.67 1061.35C1436.27 1066.62 1444.75 1063.06 1456.13 1065.04C1469.08 1067.41 1482.24 1069.78 1495.19 1067.67C1508.13 1065.56 1521.08 1058.19 1527.99 1045.02C1537.03 1027.64 1541.83 998.278 1533.24 980.634C1518.62 950.876 1486.26 906.24 1469.97 920.328C1437.16 948.506 1381.92 964.702 1371.32 997.488Z" fill="url(#paint5_linear_9_2)"/>
<path fill-rule="evenodd" clip-rule="evenodd" d="M1477.22 1052.4C1477.33 1055.56 1477.11 1058.98 1475.21 1061.09C1472.31 1064.25 1467.4 1062.01 1464.5 1058.72C1461.6 1055.42 1459.14 1051.08 1455.35 1049.76C1449.32 1047.66 1443.74 1053.98 1439.73 1059.64C1435.71 1065.3 1429.91 1071.49 1423.99 1069.12C1418.64 1067.01 1416.85 1059.37 1414.17 1053.45C1411.61 1047.52 1404.57 1042.39 1400.78 1047.26C1398.88 1049.76 1399 1053.58 1398.21 1056.87C1395.87 1067.28 1383.71 1071.09 1375.67 1065.83C1367.64 1060.56 1363.73 1049.5 1362.73 1038.7C1360.39 1013.29 1373 986.956 1392.63 976.027C1437.27 951.668 1475.66 1003.41 1477.22 1052.4Z" fill="url(#paint6_linear_9_2)"/>
<path d="M2020.55 498.85C1933.4 481.996 2027.24 1099.67 2027.24 1099.67L2096.09 1095.58C2177.55 1053.32 2174.87 1045.02 2162.49 983.005C2132.25 830.135 2072.55 508.857 2020.55 498.85Z" fill="white"/>
<path d="M1698.72 1099.4L1263.3 1099.8L1268.44 1084.13C1272.01 1073.46 1280.71 1066.35 1290.53 1066.35H1665.69C1678.08 1066.35 1689.35 1074.91 1694.48 1088.21L1698.72 1099.4Z" fill="#83B9EB"/>
<path d="M1645.27 1066.35V1063.32C1645.27 1059.51 1642.59 1056.35 1639.36 1056.35H1617.93C1614.7 1056.35 1612.02 1059.51 1612.02 1063.32V1066.35H1645.27Z" fill="#CEE3F7"/>
<path d="M1596.29 1066.35V1063.32C1596.29 1059.51 1593.61 1056.35 1590.37 1056.35H1568.95C1565.71 1056.35 1563.03 1059.51 1563.03 1063.32V1066.35H1596.29Z" fill="#CEE3F7"/>
<path d="M1547.41 1066.35V1063.32C1547.41 1059.51 1544.73 1056.35 1541.5 1056.35H1520.07C1516.84 1056.35 1514.16 1059.51 1514.16 1063.32V1066.35H1547.41Z" fill="#CEE3F7"/>
<path d="M1498.42 1066.35V1063.32C1498.42 1059.51 1495.74 1056.35 1492.51 1056.35H1471.08C1467.85 1056.35 1465.17 1059.51 1465.17 1063.32V1066.35H1498.42Z" fill="#CEE3F7"/>
<path d="M1449.44 1066.35V1063.32C1449.44 1059.51 1446.76 1056.35 1443.52 1056.35H1422.1C1418.86 1056.35 1416.18 1059.51 1416.18 1063.32V1066.35H1449.44Z" fill="#CEE3F7"/>
<path d="M1400.56 1066.35V1063.32C1400.56 1059.51 1397.88 1056.35 1394.64 1056.35H1373.22C1369.98 1056.35 1367.3 1059.51 1367.3 1063.32V1066.35H1400.56Z" fill="#CEE3F7"/>
<path d="M1351.57 1066.35V1063.32C1351.57 1059.51 1348.89 1056.35 1345.66 1056.35H1324.23C1321 1056.35 1318.32 1059.51 1318.32 1063.32V1066.35H1351.57Z" fill="#CEE3F7"/>
<path d="M556.94 887.279H1426.56C1476.44 887.279 1516.83 839.614 1516.83 780.757V216.414C1516.83 157.557 1476.44 109.893 1426.56 109.893H556.94C507.06 109.893 466.664 157.557 466.664 216.414V780.757C466.664 839.614 507.06 887.279 556.94 887.279Z" fill="#CEE3F7"/>
<path opacity="0.51" d="M802.103 479.89C926.079 526.107 1048.49 533.349 1175.37 499.641C1290.86 468.962 1400.44 419.19 1516.72 403.784V780.759C1516.72 839.616 1476.33 887.281 1426.45 887.281H556.83C506.95 887.281 466.554 839.616 466.554 780.759V329.39C579.371 377.055 690.625 438.414 802.103 479.89Z" fill="url(#paint7_linear_9_2)"/>
<path d="M990.913 648.167L1046.15 887.281L838.817 888.73L828.216 768.382L990.913 648.167Z" fill="url(#paint8_linear_9_2)"/>
<path d="M1164.54 1099.79L1144.79 1083.34C1123.7 1065.82 1098.6 1056.48 1072.82 1056.48H931.658C931.658 1056.48 853.322 944.423 915.589 840.139H758.918C758.918 840.139 676.565 907.687 748.875 1056.48H676.565V1099.4L1164.54 1099.79Z" fill="#83B9EB"/>
<path d="M915.592 840.143C915.592 840.143 966.588 786.948 981.206 742.443C995.936 697.938 990.914 648.167 990.914 648.167H830.226C830.226 648.167 839.822 701.23 824.2 744.155C818.174 760.746 758.92 840.143 758.92 840.143H915.592Z" fill="#84BBF0"/>
<path fill-rule="evenodd" clip-rule="evenodd" d="M1793.35 1041.99C1750.84 1038.57 1705.75 1031.85 1667.37 1053.98C1665.13 1055.29 1662.9 1056.61 1660.45 1056.35C1657.99 1056.08 1655.54 1053.58 1656.1 1050.81C1656.43 1049.23 1657.55 1048.05 1658.66 1046.86C1666.36 1039.62 1673.95 1032.25 1681.65 1025.01C1674.95 1023.82 1668.37 1027.9 1663.24 1033.17C1658.1 1038.44 1653.86 1044.76 1648.51 1049.5C1643.04 1054.24 1635.79 1057.14 1629.54 1054.24C1623.29 1051.21 1619.83 1040.54 1624.63 1034.88C1620.61 1038.04 1616.48 1041.07 1612.46 1044.23C1606.88 1048.44 1601.08 1052.79 1594.5 1054.11C1587.91 1055.42 1580.33 1052.66 1577.2 1045.81C1573.18 1036.99 1577.87 1026.06 1583.34 1018.29C1606.44 985.243 1643.71 969.837 1679.98 967.204C1716.24 964.57 1752.29 972.997 1788.11 979.976C1823.93 986.954 1860.75 992.485 1896.35 983.926C1905.16 981.819 1913.87 978.791 1922.91 978.264C1931.83 977.738 1941.43 979.976 1948.12 986.954C1956.94 996.171 1958.95 1011.18 1958.28 1024.35C1957.5 1040.02 1946.12 1038.31 1935.29 1039.62C1905.39 1043.05 1875.37 1044.63 1845.35 1044.36C1827.83 1044.23 1810.54 1043.44 1793.35 1041.99Z" fill="url(#paint9_linear_9_2)"/>
<path d="M2162.6 1006.7C2174.54 1048.84 2162.71 1069.12 2133.14 1092.82C2103.57 1116.52 1840 1068.06 1840 1068.06V980.634C1840 980.634 2136.49 914.009 2162.6 1006.7Z" fill="url(#paint10_linear_9_2)"/>
<path d="M1950.36 1099.01H2058.82L2074.89 887.15H1934.29L1950.36 1099.01Z" fill="#FFCF4A"/>
<path fill-rule="evenodd" clip-rule="evenodd" d="M1143.23 2667.08L1145.35 2640.35L1178.61 2531.85H1123.93L1102.28 2643.77L1102.73 2664.05L1143.23 2667.08Z" fill="url(#paint11_linear_9_2)"/>
<path d="M1621.5 2640.35L1616.59 2691.83H1416.07C1416.07 2691.83 1410.94 2673.79 1428.9 2660.76C1446.76 2647.72 1621.5 2640.35 1621.5 2640.35Z" fill="#83B9EB"/>
<path d="M1147.58 2640.35L1142.67 2691.83H942.147C942.147 2691.83 937.014 2673.79 954.98 2660.76C972.834 2647.72 1147.58 2640.35 1147.58 2640.35Z" fill="#83B9EB"/>
<path d="M1166.44 2611.78C1166.44 2611.78 1395.98 1953.55 1442.74 1682.18C1489.49 1410.8 1300.79 1448.86 1261.96 1585.4C1208.73 1772.11 1091.79 2611.78 1091.79 2611.78H1166.44Z" fill="#4A4A4A"/>
<path d="M2859.36 629.994H2995.95V1099.67H2859.36V629.994Z" fill="#83B9EB"/>
<path d="M2890.83 679.108H2964.48V935.472H2890.83V679.108Z" fill="white"/>
<path d="M2951.09 1011.05C2951.09 995.775 2940.6 983.398 2927.66 983.398C2914.71 983.398 2904.22 995.775 2904.22 1011.05C2904.22 1026.32 2914.71 1038.7 2927.66 1038.7C2940.6 1038.7 2951.09 1026.32 2951.09 1011.05Z" fill="#4A4A4A"/>
<path d="M2722.89 629.994H2859.48V1099.67H2722.89V629.994Z" fill="#FFCF4A"/>
<path d="M2754.36 679.108H2828.01V935.472H2754.36V679.108Z" fill="white"/>
<path d="M2814.62 1011.05C2814.62 995.775 2804.13 983.398 2791.18 983.398C2778.24 983.398 2767.75 995.775 2767.75 1011.05C2767.75 1026.32 2778.24 1038.7 2791.18 1038.7C2804.13 1038.7 2814.62 1026.32 2814.62 1011.05Z" fill="#4A4A4A"/>
<path d="M2995.95 629.994H3132.54V1099.67H2995.95V629.994Z" fill="#F08365"/>
<path d="M3027.42 679.108H3101.07V935.472H3027.42V679.108Z" fill="white"/>
<path d="M3087.68 1011.05C3087.68 995.775 3077.19 983.398 3064.24 983.398C3051.3 983.398 3040.81 995.775 3040.81 1011.05C3040.81 1026.32 3051.3 1038.7 3064.24 1038.7C3077.19 1038.7 3087.68 1026.32 3087.68 1011.05Z" fill="#4A4A4A"/>
<path d="M3013.92 2158.96C3047.17 2158.96 3085.33 2111.16 3130.19 2013.33C3208.19 1843.47 3181.3 1773.03 3157.53 1711.01C3145.15 1678.49 3134.32 1650.44 3138.45 1610.42C3145.59 1541.42 3213.88 1529.18 3279.94 1517.46C3322.68 1509.82 3362.97 1502.58 3384.84 1479.54C3510.04 1346.94 3428.92 1216.72 3428.02 1215.4L3424.56 1210L3419.1 1212.11C2975.53 1385.92 2937.7 1739.85 2962.81 2096.41L2963.03 2097.99C2963.48 2100.23 2975.42 2153.69 3008.89 2158.56C3010.57 2158.83 3012.24 2158.96 3013.92 2158.96ZM3418.54 1232.39C3431.71 1257.14 3475.45 1358.27 3374.24 1465.45C3355.94 1484.8 3318 1491.52 3277.71 1498.76C3209.09 1511 3131.31 1524.96 3122.72 1608.18C3118.03 1653.47 3130.75 1686.65 3143.02 1718.78C3166.35 1779.75 3190.45 1842.68 3116.24 2004.24C3059.78 2127.23 3026.08 2141.97 3011.01 2139.73C2990.04 2136.71 2980.22 2099.44 2978.88 2093.91C2950.64 1693.24 3014.92 1393.03 3418.54 1232.39Z" fill="#6AAEF0"/>
<path d="M2999.86 2155.54L3002.65 2136.84C2975.86 2131.31 2932.46 2057.18 2924.42 2020.57C2891.28 1869.68 2897.75 1795.15 2905.12 1708.64C2908.02 1674.41 2911.14 1638.99 2912.26 1595.93C2915.27 1479.8 2970.62 1461.23 3015.03 1446.22C3032.44 1440.43 3047.51 1435.29 3057.44 1425.02C3066.36 1415.81 3079.87 1393.82 3098.72 1363.4C3136.89 1301.65 3194.47 1208.43 3243.46 1179.98C3314.76 1138.64 3386.51 1170.9 3414.75 1225.94L3428.47 1216.06C3396.44 1153.65 3315.88 1116.78 3236.31 1162.87C3183.87 1193.28 3127.07 1285.06 3085.67 1352.08C3068.82 1379.33 3054.31 1402.9 3046.72 1410.67C3039.47 1418.18 3025.97 1422.65 3010.46 1427.92C2966.27 1442.8 2899.43 1465.18 2896.08 1595.27C2894.96 1637.8 2891.95 1672.83 2889.05 1706.67C2881.46 1794.89 2874.88 1870.99 2908.69 2025.18C2917.39 2064.29 2962.7 2147.77 2999.86 2155.54Z" fill="#6AAEF0"/>
<path d="M3398.68 1457.55L3401.58 1438.98C3266.78 1409.35 3186.99 1354.05 3186.21 1353.53L3177.95 1369.85C3181.3 1372.09 3261.09 1427.26 3398.68 1457.55Z" fill="#6AAEF0"/>
<path d="M3304.38 1512.45L3306.73 1493.62C3148.94 1466.9 3105.31 1440.17 3104.97 1439.9L3097.27 1456.49C3098.95 1457.68 3142.58 1485.07 3304.38 1512.45Z" fill="#6AAEF0"/>
<path d="M3044.29 1416.88L3060.23 1419.3L3045.47 1555L3029.53 1552.58L3044.29 1416.88Z" fill="#6AAEF0"/>
<path d="M2967.49 1893.91C3091.13 1871.26 3160.21 1749.73 3163.11 1744.59L3149.72 1734.19C3149.05 1735.37 3081.43 1853.88 2965.04 1875.21L2967.49 1893.91Z" fill="#6AAEF0"/>
<path d="M3027.42 1876.26C2996.95 1795.41 2936.81 1733.92 2907.35 1652.55C2886.26 1594.35 2882.35 1529.7 2880.23 1466.37C2878.11 1403.03 2877.22 1338.78 2861.71 1278.21C2846.2 1217.64 2813.28 1159.84 2764.07 1134.69C2714.75 1109.54 2648.68 1127.05 2623.24 1182.88C2605.39 1221.99 2610.19 1270.18 2620.68 1312.84C2639.31 1388.42 2674.57 1457.81 2687.63 1535.1C2701.8 1619.24 2688.75 1706.93 2699.46 1791.86C2708.94 1867.44 2737.06 1937.88 2766.52 2005.96C2783.37 2044.67 2801 2083.51 2825.55 2116.03C2850.1 2148.56 2882.46 2174.63 2918.95 2181.08C3056.77 2205.7 3066.14 1978.83 3027.42 1876.26Z" fill="#D4EAFF"/>
<path opacity="0.45" d="M2623.13 1182.88C2646.79 1130.87 2705.93 1112.17 2753.69 1130.21C2701.58 1136.66 2653.15 1186.57 2658.95 1255.03C2663.64 1311.26 2702.58 1349.31 2734.5 1386.05C2784.82 1443.85 2821.87 1516.01 2816.52 1601.46C2812.05 1672.3 2786.5 1741.82 2796.43 1813.72C2802.57 1857.43 2823.32 1897.98 2848.1 1930.64C2894.74 1992.13 2982.9 2033.08 3026.08 1944.07C3030.66 1934.72 3034.56 1923.92 3037.8 1912.47C3062.57 2023.99 3042.15 2203.2 2918.73 2181.08C2882.24 2174.49 2849.88 2148.55 2825.33 2116.03C2800.78 2083.51 2783.15 2044.67 2766.3 2005.96C2736.84 1937.88 2708.72 1867.44 2699.24 1791.86C2688.52 1706.93 2701.69 1619.24 2687.41 1535.1C2674.35 1457.94 2639.2 1388.42 2620.45 1312.84C2609.96 1270.05 2605.28 1221.99 2623.13 1182.88Z" fill="url(#paint12_linear_9_2)"/>
<path d="M2886.37 2337.11C2888.94 2337.11 2891.39 2335.66 2892.95 2333.16C2952.32 2234.4 2970.4 2101.15 2939.93 1985.41C2927.43 1937.62 2907.24 1892.98 2887.71 1849.92C2868.96 1808.45 2849.54 1765.52 2837.49 1720.49C2821.98 1663.08 2817.96 1601.33 2814.06 1541.55C2813.05 1525.88 2812.05 1510.08 2810.82 1494.54C2805.13 1421.86 2793.97 1338.38 2754.36 1271.23C2751.79 1266.88 2746.88 1265.83 2743.2 1268.86C2739.52 1271.89 2738.62 1277.81 2741.19 1282.03C2778.69 1345.62 2789.29 1425.94 2794.87 1496.26C2796.09 1511.79 2797.1 1527.46 2798.1 1543C2802.12 1603.83 2806.25 1666.77 2822.32 1726.29C2834.93 1772.9 2854.68 1816.61 2873.76 1858.88C2892.84 1901.28 2912.7 1944.99 2924.76 1991.08C2953.66 2101.28 2936.47 2228.22 2880.01 2322.23C2877.44 2326.44 2878.33 2332.37 2881.91 2335.4C2883.13 2336.58 2884.81 2337.11 2886.37 2337.11Z" fill="white"/>
<path d="M2802.34 1499.81C2806.03 1499.81 2809.26 1496.91 2810.15 1492.44C2811.16 1487.3 2808.48 1482.3 2804.13 1481.11L2668.44 1444.25C2664.08 1443.06 2659.84 1446.22 2658.84 1451.36C2657.84 1456.49 2660.51 1461.5 2664.87 1462.68L2800.56 1499.55C2801.12 1499.68 2801.79 1499.81 2802.34 1499.81Z" fill="white"/>
<path d="M2802.34 1594.48C2806.25 1594.48 2809.71 1591.06 2810.27 1586.32C2810.94 1581.18 2807.81 1576.31 2803.46 1575.65L2692.76 1556.96C2688.41 1556.3 2684.28 1559.85 2683.72 1564.99C2683.05 1570.12 2686.18 1575 2690.53 1575.65L2801.23 1594.35C2801.56 1594.48 2802.01 1594.48 2802.34 1594.48Z" fill="white"/>
<path d="M2868.74 1837.15C2871.97 1837.15 2874.99 1834.92 2876.21 1831.23L2924.2 1688.76C2925.87 1683.89 2923.86 1678.36 2919.73 1676.52C2915.61 1674.67 2910.92 1676.91 2909.36 1681.78L2861.37 1824.25C2859.7 1829.12 2861.71 1834.65 2865.84 1836.5C2866.73 1837.02 2867.73 1837.15 2868.74 1837.15Z" fill="white"/>
<path d="M2766.08 2681.83H3187.1L3211.21 2376.61L3235.31 2071.4H2717.87L2741.97 2376.61L2766.08 2681.83Z" fill="#6AAEF0"/>
<path opacity="0.6" d="M2939.04 2453.9C2996.28 2385.83 3021.95 2291.42 3074.06 2218.87C3116.02 2160.54 3171.7 2134.6 3231.18 2123.41L3211.2 2376.61L3187.1 2681.82H2766.07L2757.26 2570.04C2821.09 2536.46 2887.93 2514.73 2939.04 2453.9Z" fill="url(#paint13_linear_9_2)"/>
<path d="M448.923 1067.54H496.572C512.529 1067.54 526.366 1054.76 530.16 1036.46L540.538 986.954C543.104 974.708 540.761 961.936 534.177 952.061C527.594 942.054 517.662 936.392 506.95 936.392H467.782L448.923 1067.54ZM506.838 955.353C512.529 955.353 517.885 958.381 521.456 963.78C525.027 969.047 526.254 975.893 524.915 982.477L514.538 1031.99C512.529 1041.73 505.052 1048.58 496.572 1048.58H468.005L481.396 955.353H506.838V955.353Z" fill="#F08365"/>
<path d="M347.266 1099.8H476.821L514.092 895.839H352.511L347.266 1099.8Z" fill="#F08365"/>
<path opacity="0.68" d="M388.666 1024.74C403.73 1009.34 412.434 989.061 422.924 969.574C443.791 931.126 467.671 912.692 502.04 895.707H514.092L476.821 1099.66H347.266L348.606 1048.05C362.889 1043.44 376.614 1036.99 388.666 1024.74Z" fill="url(#paint14_linear_9_2)"/>
<path d="M1920 247.358C1926.03 210.753 1925.92 149.131 1914.98 127.011C1898.91 94.2246 1870.68 74.2105 1839.77 68.022C1803.28 60.6484 1773.04 57.4883 1744.81 28.389C1729.41 12.4568 1703.74 -6.50381 1681.98 2.18648C1646.39 16.5386 1642.93 113.185 1662.9 143.865C1685.67 179.021 1747.6 217.864 1786.54 208.515C1816.56 201.273 1847.92 188.369 1870.35 161.245C1880.17 195.48 1851.6 251.835 1865.88 285.279C1885.19 330.179 1910.97 302.002 1920 247.358Z" fill="#4A4A4A"/>
<path d="M393.797 857.523C396.252 860.815 400.604 861.078 403.617 858.576L406.853 854.363C408.192 851.203 407.299 846.726 403.84 842.38C392.569 828.292 377.505 819.47 362.998 811.438C357.084 808.146 350.946 804.854 344.921 801.563C299.727 777.072 252.86 751.659 226.413 704.389C193.494 645.532 204.095 557.313 249.512 511.623C292.92 467.908 364.003 467.381 408.638 509.121C411.986 512.281 416.784 512.018 419.685 508.331C422.81 504.381 422.587 498.061 419.016 494.637C353.067 432.225 240.362 451.317 203.984 554.547C178.765 626.177 194.61 707.154 245.271 756.663C272.388 783.129 305.641 801.167 338.225 818.943C344.251 822.235 350.277 825.395 356.191 828.687C369.917 836.192 384.088 844.751 393.797 857.523Z" fill="#E3EFFA"/>
<path d="M453.498 672.656C548.126 675.553 630.925 589.967 639.964 478.705C650.342 350.589 564.976 242.355 458.52 242.355C417.567 242.355 377.729 258.682 345.703 288.44C342.132 291.731 341.797 298.052 344.699 302.133C347.488 305.952 352.398 306.347 355.746 303.187C401.944 260.394 465.55 248.28 523.688 276.853C579.594 304.372 618.427 367.706 624.007 438.94C633.157 555.469 555.379 653.696 458.52 653.696C435.198 653.696 412.88 648.165 391.901 637.368C387.884 635.262 383.309 637.105 381.412 641.713C379.403 646.454 381.077 652.511 385.206 654.617C406.742 665.809 429.618 671.866 453.498 672.656Z" fill="#E3EFFA"/>
<path d="M11.159 2705H3955.84C3961.98 2705 3967 2699.08 3967 2691.83C3967 2684.59 3961.98 2678.67 3955.84 2678.67H11.159C5.02163 2678.67 0.000108242 2684.59 0.000108242 2691.83C0.000108242 2699.08 5.02163 2705 11.159 2705Z" fill="#D4EAFF"/>
<defs>
<linearGradient id="paint0_linear_9_2" x1="1604.53" y1="2650.82" x2="1601.6" y2="2466.04" gradientUnits="userSpaceOnUse">
<stop stop-color="#FFB08E"/>
<stop offset="1" stop-color="#FFBDA1"/>
</linearGradient>
<linearGradient id="paint1_linear_9_2" x1="2310.42" y1="1160.42" x2="-363.067" y2="1160.42" gradientUnits="userSpaceOnUse">
<stop stop-color="white"/>
<stop offset="1" stop-color="#F2F2F2"/>
</linearGradient>
<linearGradient id="paint2_linear_9_2" x1="2310.42" y1="1160.42" x2="-363.062" y2="1160.42" gradientUnits="userSpaceOnUse">
<stop stop-color="white"/>
<stop offset="1" stop-color="#F2F2F2"/>
</linearGradient>
<linearGradient id="paint3_linear_9_2" x1="1866.87" y1="514.283" x2="1861.27" y2="161.13" gradientUnits="userSpaceOnUse">
<stop stop-color="#F09B76"/>
<stop offset="1" stop-color="#FFB291"/>
</linearGradient>
<linearGradient id="paint4_linear_9_2" x1="1839.87" y1="363.105" x2="1722.72" y2="-58.9038" gradientUnits="userSpaceOnUse">
<stop stop-color="#FFB08E"/>
<stop offset="1" stop-color="#FFBDA1"/>
</linearGradient>
<linearGradient id="paint5_linear_9_2" x1="1460.15" y1="1005.72" x2="1575.69" y2="965.65" gradientUnits="userSpaceOnUse">
<stop stop-color="white"/>
<stop offset="1" stop-color="#F2F2F2"/>
</linearGradient>
<linearGradient id="paint6_linear_9_2" x1="1420.02" y1="1056.11" x2="1417.95" y2="925.592" gradientUnits="userSpaceOnUse">
<stop stop-color="#FFB08E"/>
<stop offset="1" stop-color="#FFBDA1"/>
</linearGradient>
<linearGradient id="paint7_linear_9_2" x1="991.727" y1="842.15" x2="991.727" y2="256.947" gradientUnits="userSpaceOnUse">
<stop stop-color="white"/>
<stop offset="0.1113" stop-color="#F5F9FF"/>
<stop offset="0.4616" stop-color="#D9EAFF"/>
<stop offset="0.7695" stop-color="#C8E1FF"/>
<stop offset="1" stop-color="#C2DEFF"/>
</linearGradient>
<linearGradient id="paint8_linear_9_2" x1="937.183" y1="917.101" x2="937.183" y2="623.155" gradientUnits="userSpaceOnUse">
<stop stop-color="white"/>
<stop offset="0.1113" stop-color="#F5F9FF"/>
<stop offset="0.4616" stop-color="#D9EAFF"/>
<stop offset="0.7695" stop-color="#C8E1FF"/>
<stop offset="1" stop-color="#C2DEFF"/>
</linearGradient>
<linearGradient id="paint9_linear_9_2" x1="1767.03" y1="1042.54" x2="1765.18" y2="925.859" gradientUnits="userSpaceOnUse">
<stop stop-color="#FFB08E"/>
<stop offset="1" stop-color="#FFBDA1"/>
</linearGradient>
<linearGradient id="paint10_linear_9_2" x1="2064.13" y1="1028.42" x2="1791.1" y2="1028.42" gradientUnits="userSpaceOnUse">
<stop stop-color="white"/>
<stop offset="1" stop-color="#F2F2F2"/>
</linearGradient>
<linearGradient id="paint11_linear_9_2" x1="1141.15" y1="2648.65" x2="1138.34" y2="2471.61" gradientUnits="userSpaceOnUse">
<stop stop-color="#FFB08E"/>
<stop offset="1" stop-color="#FFBDA1"/>
</linearGradient>
<linearGradient id="paint12_linear_9_2" x1="2829.14" y1="2334.44" x2="2829.14" y2="767.305" gradientUnits="userSpaceOnUse">
<stop stop-color="white"/>
<stop offset="0.1113" stop-color="#F5F9FF"/>
<stop offset="0.4616" stop-color="#D9EAFF"/>
<stop offset="0.7695" stop-color="#C8E1FF"/>
<stop offset="1" stop-color="#C2DEFF"/>
</linearGradient>
<linearGradient id="paint13_linear_9_2" x1="2994.21" y1="2754.05" x2="2994.21" y2="2007.84" gradientUnits="userSpaceOnUse">
<stop stop-color="white"/>
<stop offset="0.1113" stop-color="#F5F9FF"/>
<stop offset="0.4616" stop-color="#D9EAFF"/>
<stop offset="0.7695" stop-color="#C8E1FF"/>
<stop offset="1" stop-color="#C2DEFF"/>
</linearGradient>
<linearGradient id="paint14_linear_9_2" x1="430.723" y1="1123.85" x2="430.723" y2="874.564" gradientUnits="userSpaceOnUse">
<stop stop-color="white"/>
<stop offset="0.1113" stop-color="#FFF5F5"/>
<stop offset="0.4616" stop-color="#FFD9DB"/>
<stop offset="0.7695" stop-color="#FFC8CC"/>
<stop offset="1" stop-color="#FFC2C6"/>
</linearGradient>
</defs>
</svg>
